<?xml version="1.0" encoding="iso-8859-1"?>
<!-- Generator: Adobe Illustrator 21.0.0, SVG Export Plug-In . SVG Version: 6.00 Build 0)  -->
<svg xmlns="http://www.w3.org/2000/svg" xmlns:xlink="http://www.w3.org/1999/xlink" version="1.1" id="Capa_1" x="0px" y="0px" viewBox="0 0 512 512" style="enable-background:new 0 0 512 512;" xml:space="preserve" width="512" height="512">
<g>
	<path d="M33.814,237.251c6.768,31.56,26.558,58.674,53.101,75.462c3.063,6.767,55.567,75.195,55.514,184.279   c-0.002,3.979,1.577,7.797,4.391,10.611s6.63,4.396,10.609,4.396h197.143c3.979,0,7.796-1.582,10.609-4.396   s4.393-6.632,4.391-10.611c-0.054-109.297,52.541-177.711,55.514-184.279c26.516-16.772,46.324-43.866,53.101-75.462   c7.306-34.053,0.364-68.129-19.545-95.95c-41.698-58.269-66.235-65.28-67.582-126.631C390.88,6.517,384.219,0,376.063,0H135.938   c-8.156,0-14.817,6.517-14.996,14.671c-1.347,61.328-25.823,68.276-67.582,126.631C33.45,169.123,26.509,203.199,33.814,237.251z    M131.419,329.419c42.077,6.693,82.647-8.514,109.581-39.116V482h-68.872C169.957,428.48,156.041,376.41,131.419,329.419z    M339.872,482H271V290.279c27.416,31.159,68.259,45.719,109.575,39.15C355.957,376.418,342.043,428.484,339.872,482z    M77.756,158.76c37.59-52.53,67.06-67.948,72.396-128.76h211.697c5.336,60.818,34.822,76.254,72.396,128.76   c14.933,20.867,20.12,46.508,14.609,72.2c-7.124,33.212-34.118,60.136-66.451,67.573c-34.929,8.034-70.21-4.18-92.075-31.874   L271,242.18v-46.186c0-8.284-6.716-15-15-15s-15,6.716-15,15v46.185l-19.327,24.48c-21.864,27.695-57.15,39.906-92.075,31.874   c-32.38-7.448-59.338-34.412-66.451-67.573C57.636,205.268,62.823,179.627,77.756,158.76z"/>
</g>















</svg>
