<svg viewBox="0 -78 511.99849 511" xmlns="http://www.w3.org/2000/svg"><path d="m465.144531 163.882812c-1.585937-3.828124-5.972656-5.644531-9.800781-4.058593-3.828125 1.582031-5.644531 5.972656-4.058594 9.800781l39.078125 94.316406c.710938 1.710938.15625 3.128906-.238281 3.816406-.390625.6875-1.3125 1.871094-3.128906 2.128907-16.164063 2.3125-31.644532 7.269531-46.007813 14.730469-15.023437 7.804687-28.433593 18.128906-39.910156 30.722656h-133.867187c-4.140626 0-7.5 3.355468-7.5 7.5 0 4.144531 3.359374 7.503906 7.5 7.503906h128.140624c-2.652343 5.570312-8.339843 9.433594-14.910156 9.433594h-348.929687c-6.570313 0-12.253907-3.863282-14.90625-9.433594h218.597656c4.144531 0 7.503906-3.359375 7.503906-7.503906 0-4.144532-3.359375-7.5-7.503906-7.5h-214.839844l27.144531-48.035156c3.339844.277343 6.667969.429687 9.972657.429687 6.589843 0 13.09375-.550781 19.449219-1.652344 16.601562-2.871093 29.929687-8.96875 41.953124-19.183593 3.15625-2.683594 3.539063-7.417969.855469-10.574219-2.683593-3.160157-7.414062-3.542969-10.574219-.859375-9.890624 8.40625-20.945312 13.4375-34.792968 15.835937-6.0625 1.050781-12.289063 1.523438-18.621094 1.417969l2.15625-3.816406c47.347656-83.792969 132.789062-139.378906 228.550781-148.695313l101.828125-9.898437c8.335938-.808594 16.386719 1.015625 23.246094 4.914062.40625.300782.84375.5625 1.304688.773438 5.484374 3.40625 10.128906 8.175781 13.425781 14.015625.011719.019531.019531.035156.03125.054687.027343.046875.050781.09375.078125.140625-25.65625-.058593-51.355469.789063-76.585938 2.519531-42.277344 2.886719-74.085937 7.527344-100.097656 14.601563-23.949219 6.507813-43.921875 15.421875-62.847656 28.054687-26.152344 17.433594-40.960938 36.523438-54.027344 53.363282-2.328125 3-4.523438 5.832031-6.742188 8.597656-2.589843 3.234375-2.070312 7.957031 1.164063 10.546875 3.234375 2.59375 7.953125 2.070313 10.542969-1.164063 2.292968-2.859374 4.523437-5.734374 6.890625-8.78125 12.363281-15.9375 26.378906-34 50.5-50.082031 17.777343-11.867187 35.804687-19.902343 58.457031-26.054687 25.035156-6.808594 55.914062-11.292969 97.183594-14.109375 27.035156-1.859375 54.628906-2.667969 82.089844-2.4375l6.929687 16.722656c1.585937 3.828125 5.976563 5.644531 9.804687 4.058594 3.828126-1.585938 5.644532-5.972657 4.058594-9.800781l-7.785156-18.785157 11.921875-1.867187c8.546875-1.335938 14.949219-7.988282 16.410156-16.058594l15.148438-4.542969c13.527343-4.054687 22.613281-16.269531 22.613281-30.394531 0-17.496094-14.230469-31.726562-31.722656-31.726562h-92.023438c-9.21875 0-16.71875-7.503907-16.71875-16.730469v-8.136719c0-4.140625-3.355468-7.5-7.5-7.5-4.144531 0-7.503906 3.359375-7.503906 7.5v8.136719c0 17.496093 14.230469 31.730469 31.722656 31.730469h92.023438c9.21875 0 16.71875 7.503906 16.71875 16.726562 0 7.445312-4.789063 13.886719-11.917969 16.023438l-13.820313 4.144531c-4.136718-6.308594-11.703124-9.980469-19.621093-8.742188l-34.148438 5.347657c-9.152343-4.832032-19.730469-7.050782-30.65625-5.988282l-101.824219 9.898438c-51.519531 5.011718-100.191406 22.773437-142.109374 50.722656v-9.847656c0-4.9375-2.765626-9.335938-7.222657-11.46875-4.449219-2.132813-9.601562-1.539063-13.4375 1.542968l-7.566406 6.054688c-7.359375 5.898438-11.582031 14.6875-11.582031 24.105469v21.144531c-22.796875 21.304688-42.523438 46.164062-58.246094 73.992188l-43.867188 77.625c-.707031 1.25-1.0273432 2.695312-.9687495 4.125 0 17.371093 14.1328125 31.503906 31.5039065 31.503906h348.929687c16.515625 0 30.09375-12.773438 31.394532-28.960938 10.355468-11.449218 22.476562-20.824218 36.066406-27.882812 12.863281-6.683594 26.730468-11.121094 41.214844-13.191406 5.949218-.847657 11.066406-4.332032 14.042968-9.554688 2.984375-5.234375 3.371094-11.433594 1.0625-16.996094zm-11.1875-73.042968c1.265625-.195313 2.53125.109375 3.570313.863281 1.035156.757813 1.714844 1.871094 1.910156 3.136719.011719.0625.023438.121094.03125.183594l.023438.121093c.003906.046875.011718.09375.019531.136719.40625 2.613281-1.386719 5.074219-4.003907 5.484375l-15.847656 2.480469c-1.8125-3.3125-3.929687-6.378906-6.3125-9.179688zm-335.863281 55.542968c0-4.84375 2.171875-9.363281 5.957031-12.394531l3.847657-3.078125v15.746094c-3.320313 2.511719-6.585938 5.085938-9.804688 7.726562zm0 0"/><path d="m405.839844 196.53125v-1.257812c0-23.441407-19.070313-42.511719-42.507813-42.511719h-100.675781c-23.441406 0-42.511719 19.070312-42.511719 42.511719v1.257812c0 23.4375 19.070313 42.507812 42.511719 42.507812h100.675781c23.4375 0 42.507813-19.070312 42.507813-42.507812zm-119.257813 27.503906v-5.730468c0-2.246094 1.828125-4.074219 4.078125-4.074219h44.363282c2.246093 0 4.074218 1.828125 4.074218 4.074219v5.730468zm104.253907-27.503906c0 15.164062-12.335938 27.503906-27.503907 27.503906h-9.230469v-5.730468c0-10.519532-8.558593-19.078126-19.078124-19.078126h-44.363282c-10.523437 0-19.082031 8.558594-19.082031 19.078126v5.730468h-8.925781c-15.167969 0-27.503906-12.339844-27.503906-27.503906v-1.257812c0-15.167969 12.335937-27.507813 27.503906-27.507813h100.679687c15.164063 0 27.503907 12.339844 27.503907 27.507813zm0 0"/><path d="m143.035156 285.675781c0 4.214844-3.417968 7.632813-7.636718 7.632813-4.214844 0-7.632813-3.417969-7.632813-7.632813 0-4.21875 3.417969-7.632812 7.632813-7.632812 4.21875 0 7.636718 3.414062 7.636718 7.632812zm0 0"/><path d="m175.097656 285.675781c0 4.214844-3.417968 7.632813-7.636718 7.632813-4.214844 0-7.632813-3.417969-7.632813-7.632813 0-4.21875 3.417969-7.632812 7.632813-7.632812 4.21875 0 7.636718 3.414062 7.636718 7.632812zm0 0"/><path d="m342.53125 285.675781c0 4.214844-3.417969 7.632813-7.632812 7.632813-4.21875 0-7.636719-3.417969-7.636719-7.632813 0-4.21875 3.417969-7.632812 7.636719-7.632812 4.214843 0 7.632812 3.414062 7.632812 7.632812zm0 0"/><path d="m374.59375 285.675781c0 4.214844-3.417969 7.632813-7.636719 7.632813-4.214843 0-7.632812-3.417969-7.632812-7.632813 0-4.21875 3.417969-7.632812 7.632812-7.632812 4.21875 0 7.636719 3.414062 7.636719 7.632812zm0 0"/></svg>