<?xml version="1.0"?>
<svg xmlns="http://www.w3.org/2000/svg" viewBox="0 0 64 64" width="512" height="512"><g id="outline"><path d="M51,2H13A11.013,11.013,0,0,0,2,13V51A11.013,11.013,0,0,0,13,62H51A11.013,11.013,0,0,0,62,51V13A11.013,11.013,0,0,0,51,2Zm9,49a9.01,9.01,0,0,1-9,9H13a9.01,9.01,0,0,1-9-9V13a9.01,9.01,0,0,1,9-9H51a9.01,9.01,0,0,1,9,9Z"/><path d="M45,19A13,13,0,1,0,32,32,13.015,13.015,0,0,0,45,19Zm-5.966,8.448A10.946,10.946,0,0,1,33,29.949V28H31v1.949a10.946,10.946,0,0,1-6.034-2.5l1.741-1.741-1.414-1.414-1.741,1.741A10.946,10.946,0,0,1,21.051,20H23V18H21.051a10.946,10.946,0,0,1,2.5-6.034l1.741,1.741,1.414-1.414-1.741-1.741A10.946,10.946,0,0,1,31,8.051V10h2V8.051a10.946,10.946,0,0,1,6.034,2.5l-1.741,1.741,1.414,1.414,1.741-1.741A10.946,10.946,0,0,1,42.949,18H41v2h1.949a10.946,10.946,0,0,1-2.5,6.034l-1.741-1.741-1.414,1.414Z"/><path d="M32,16a2.993,2.993,0,0,0-1,5.816V26h2V21.816A2.993,2.993,0,0,0,32,16Zm0,4a1,1,0,1,1,1-1A1,1,0,0,1,32,20Z"/><path d="M25.663,32.573A14.144,14.144,0,0,1,17,19a14.84,14.84,0,0,1,3.29-9.375A1,1,0,0,0,19.51,8H15a7.008,7.008,0,0,0-7,7V49a7.008,7.008,0,0,0,7,7H30a1,1,0,0,0,1-1V40.793A9.142,9.142,0,0,0,25.663,32.573ZM29,54H15a5.006,5.006,0,0,1-5-5V15a5.006,5.006,0,0,1,5-5h2.578A17.06,17.06,0,0,0,15,19c0,8.946,5.341,13.305,9.821,15.387A7.136,7.136,0,0,1,29,40.793Z"/><path d="M49,8H44.491a1,1,0,0,0-.78,1.625A14.844,14.844,0,0,1,47,19a14.144,14.144,0,0,1-8.663,13.573A9.142,9.142,0,0,0,33,40.793V55a1,1,0,0,0,1,1H49a7.008,7.008,0,0,0,7-7V15A7.008,7.008,0,0,0,49,8Zm5,41a5.006,5.006,0,0,1-5,5H35V40.793a7.136,7.136,0,0,1,4.179-6.406C43.659,32.305,49,27.946,49,19a17.068,17.068,0,0,0-2.577-9H49a5.006,5.006,0,0,1,5,5Z"/><rect x="14" y="48" width="11" height="2"/><rect x="14" y="44" width="9" height="2"/><rect x="14" y="40" width="6" height="2"/><rect x="14" y="36" width="4" height="2"/><rect x="39" y="48" width="11" height="2"/><rect x="41" y="44" width="9" height="2"/><rect x="44" y="40" width="6" height="2"/><rect x="46" y="36" width="4" height="2"/></g></svg>
